<svg width="200" height="200" viewBox="0 0 200 200" fill="none" xmlns="http://www.w3.org/2000/svg">
<rect width="200" height="200" rx="24" fill="black"/>
<path d="M152.683 65.2554C161.165 65.2555 167.565 72.9556 166.014 81.2944L151.751 157.957C149.959 167.589 141.553 174.575 131.756 174.575H87.0087C78.5269 174.574 72.1274 166.874 73.6786 158.536L75.5819 148.304H98.1552C111.219 148.304 122.427 138.99 124.816 126.147L136.144 65.2554H152.683ZM112.006 25.4253C120.488 25.4253 126.887 33.1254 125.336 41.4644L110.043 123.667C108.848 130.088 103.244 134.744 96.7128 134.745H46.3309C37.8491 134.744 31.4495 127.044 33.0009 118.706L48.2948 36.5044C49.4896 30.0826 55.0929 25.4253 61.6249 25.4253H112.006Z" fill="white"/>
</svg>
